<svg width="173" height="189" viewBox="0 0 173 189" fill="none" xmlns="http://www.w3.org/2000/svg">
<g filter="url(#filter0_d_19_4)">
<path d="M165.656 115.738C166.626 115.592 167.32 115.617 167.738 115.813C168.156 116.009 168.409 116.402 168.498 116.993C168.651 118.005 168.645 121.695 168.482 128.062C168.407 134.157 168.368 137.766 168.364 138.889C168.435 149.967 167.576 158.877 165.786 165.618C163.996 172.36 160.823 176.073 156.266 176.759C154.115 177.083 152.262 176.672 150.709 175.525C149.162 174.42 148.226 172.792 147.902 170.64C147.604 168.657 147.742 166.565 148.317 164.365C148.934 162.157 150.263 159.52 152.303 156.451C154.392 153.418 157.434 149.832 161.428 145.693L161.398 144.209C161.459 142.603 161.46 140.316 161.401 137.348C161.014 140.513 160.182 143.011 158.905 144.843C157.621 146.633 156.135 147.655 154.448 147.909C152.549 148.194 150.858 147.564 149.374 146.019C147.926 144.425 147.005 142.32 146.611 139.704C146.135 136.539 145.91 133.618 145.939 130.938C145.96 128.217 146.234 125.306 146.76 122.207C146.991 120.877 147.446 119.881 148.122 119.218C148.799 118.556 149.96 118.1 151.606 117.853C152.534 117.713 153.189 117.765 153.571 118.01C153.995 118.248 154.252 118.663 154.341 119.253C154.392 119.591 154.331 120.765 154.159 122.776C153.972 124.4 153.847 125.864 153.785 127.168C153.708 128.949 153.663 130.66 153.651 132.301C153.633 133.9 153.7 135.206 153.853 136.219C154.094 137.822 154.658 138.557 155.544 138.424C156.177 138.328 156.862 137.578 157.6 136.173C158.38 134.761 159.103 132.689 159.771 129.956C160.48 127.217 161.059 123.894 161.506 119.987C161.653 118.67 162.023 117.687 162.615 117.037C163.25 116.38 164.263 115.947 165.656 115.738ZM156.039 170.516C157.093 170.357 158.09 168.955 159.03 166.311C159.97 163.668 160.665 159.399 161.115 153.506C158.279 156.738 156.291 159.583 155.151 162.041C154.06 164.536 153.641 166.627 153.895 168.314C154.003 169.031 154.218 169.603 154.541 170.029C154.907 170.449 155.406 170.611 156.039 170.516Z" fill="url(#paint0_linear_19_4)"/>
<path d="M127.315 151.993C124.699 152.387 122.468 151.752 120.621 150.088C118.774 148.425 117.618 146.053 117.155 142.973C116.647 139.598 116.948 136.295 118.058 133.064C119.162 129.791 120.864 127.054 123.164 124.852C125.501 122.602 128.125 121.258 131.036 120.82C131.964 120.68 132.604 120.778 132.957 121.113C133.345 121.4 133.715 121.991 134.065 122.888C134.926 122.586 135.842 122.362 136.812 122.216C138.879 121.904 140.024 122.487 140.246 123.964C140.38 124.85 140.381 127.007 140.25 130.435C140.01 135.433 140.033 138.882 140.319 140.78C140.414 141.413 140.638 141.897 140.99 142.233C141.385 142.562 141.835 142.688 142.342 142.612C143.143 142.491 144.038 141.839 145.024 140.655C146.005 139.428 147.291 137.509 148.882 134.896C149.299 134.229 149.825 133.848 150.457 133.753C151.006 133.67 151.466 133.86 151.837 134.322C152.251 134.777 152.525 135.448 152.658 136.334C152.912 138.022 152.708 139.39 152.046 140.439C150.64 142.851 149.078 144.942 147.36 146.71C145.641 148.479 143.875 149.5 142.061 149.773C140.668 149.983 139.312 149.712 137.991 148.962C136.705 148.163 135.643 146.985 134.805 145.429C133.145 149.303 130.648 151.491 127.315 151.993ZM128.631 145.258C129.559 145.118 130.363 144.436 131.041 143.212C131.72 141.988 132.113 140.441 132.219 138.569L132.808 126.572C131.042 126.881 129.498 127.804 128.176 129.34C126.89 130.828 125.963 132.694 125.394 134.937C124.826 137.18 124.72 139.483 125.075 141.845C125.272 143.153 125.671 144.086 126.273 144.642C126.917 145.193 127.703 145.398 128.631 145.258Z" fill="url(#paint1_linear_19_4)"/>
<path d="M96.4891 156.633C94.8858 156.875 93.6196 156.202 92.6905 154.616C91.8036 153.024 91.0807 150.371 90.5218 146.658C89.6961 141.174 89.6923 135.845 90.5103 130.674C90.7058 129.393 91.1842 128.415 91.9455 127.74C92.7426 127.016 93.9216 126.536 95.4827 126.301C96.3266 126.174 96.9331 126.191 97.3024 126.351C97.6717 126.511 97.9008 126.886 97.9897 127.477C98.0913 128.152 98.0035 129.719 97.7263 132.177C97.5585 133.928 97.4432 135.455 97.3806 136.759C97.318 138.063 97.342 139.656 97.4527 141.538C98.2988 137.7 99.4153 134.511 100.802 131.973C102.189 129.434 103.632 127.555 105.132 126.337C106.673 125.113 108.14 124.396 109.532 124.186C112.275 123.773 113.853 124.938 114.265 127.681C114.348 128.229 114.358 129.587 114.296 131.753C114.212 133.492 114.202 134.572 114.266 134.994C114.488 136.471 115.127 137.13 116.182 136.971C117.363 136.793 118.742 135.636 120.319 133.5C120.785 132.869 121.313 132.509 121.904 132.42C122.452 132.338 122.912 132.527 123.284 132.989C123.691 133.403 123.955 134.01 124.076 134.812C124.311 136.373 124.073 137.66 123.363 138.673C122.366 140.074 121.132 141.339 119.662 142.466C118.228 143.545 116.625 144.218 114.853 144.484C112.617 144.821 110.823 144.509 109.47 143.547C108.159 142.58 107.358 141.125 107.066 139.185C106.97 138.552 106.938 137.909 106.97 137.257C106.927 136.401 106.883 135.825 106.839 135.53C106.737 134.854 106.454 134.552 105.99 134.622C105.357 134.717 104.622 135.561 103.783 137.155C102.98 138.699 102.247 140.708 101.583 143.181C100.92 145.654 100.466 148.225 100.22 150.894C100.055 152.947 99.7095 154.379 99.1846 155.192C98.6955 155.956 97.797 156.436 96.4891 156.633Z" fill="url(#paint2_linear_19_4)"/>
<path d="M94.0121 136.813C94.5606 136.731 95.0238 136.941 95.4017 137.445C95.7796 137.949 96.0321 138.623 96.1591 139.467C96.464 141.492 96.0332 142.787 94.8668 143.351C92.4687 144.618 89.7603 145.543 86.7416 146.127C86.4734 149.792 85.32 152.878 83.2812 155.386C81.236 157.851 78.7156 159.309 75.7201 159.76C73.1886 160.141 70.9236 159.856 68.9252 158.906C66.969 157.949 65.3744 156.528 64.1413 154.642C62.9082 152.757 62.1139 150.633 61.7582 148.27C61.2755 145.064 61.4586 142.124 62.3074 139.45C63.1499 136.734 64.5422 134.518 66.4844 132.802C68.4202 131.044 70.696 129.968 73.3119 129.574C76.5184 129.091 79.2604 129.822 81.5378 131.766C83.8511 133.661 85.421 136.208 86.2475 139.406C88.2115 138.981 90.5107 138.203 93.1451 137.073C93.47 136.938 93.759 136.851 94.0121 136.813ZM75.2165 152.975C76.5666 152.772 77.6443 152.049 78.4496 150.806C79.2971 149.556 79.7339 147.873 79.7603 145.754C78.319 145.065 77.1317 144.057 76.1985 142.731C75.3075 141.398 74.7414 139.93 74.5 138.327C74.3984 137.652 74.36 136.967 74.385 136.273L74.0686 136.32C72.3809 136.575 71.0914 137.61 70.1999 139.427C69.3443 141.195 69.1387 143.556 69.5833 146.51C69.9326 148.83 70.6424 150.536 71.7126 151.626C72.825 152.71 73.993 153.159 75.2165 152.975Z" fill="url(#paint3_linear_19_4)"/>
<path d="M66.7246 140.921C67.273 140.838 67.7362 141.049 68.1141 141.553C68.492 142.057 68.7445 142.731 68.8715 143.575C69.1764 145.6 68.7456 146.895 67.5792 147.459C65.1811 148.726 62.4727 149.651 59.454 150.235C59.1859 153.9 58.0324 156.986 55.9936 159.493C53.9484 161.958 51.4281 163.417 48.4325 163.867C45.901 164.249 43.6361 163.964 41.6377 163.013C39.6814 162.057 38.0868 160.635 36.8537 158.75C35.6207 156.865 34.8263 154.74 34.4706 152.378C33.9879 149.171 34.171 146.231 35.0198 143.558C35.8623 140.842 37.2546 138.626 39.1968 136.91C41.1326 135.151 43.4085 134.075 46.0243 133.682C49.2309 133.199 51.9728 133.93 54.2502 135.874C56.5635 137.769 58.1334 140.316 58.96 143.514C60.9239 143.089 63.2231 142.311 65.8576 141.181C66.1824 141.046 66.4714 140.959 66.7246 140.921ZM47.929 157.083C49.2791 156.88 50.3568 156.156 51.162 154.913C52.0095 153.664 52.4464 151.98 52.4727 149.862C51.0314 149.173 49.8442 148.165 48.911 146.839C48.02 145.506 47.4538 144.038 47.2124 142.434C47.1108 141.759 47.0725 141.075 47.0974 140.38L46.781 140.428C45.0934 140.682 43.8038 141.718 42.9123 143.535C42.0567 145.303 41.8512 147.664 42.2958 150.617C42.6451 152.938 43.3548 154.643 44.425 155.733C45.5374 156.817 46.7054 157.267 47.929 157.083Z" fill="url(#paint4_linear_19_4)"/>
<path d="M39.8714 150.4C40.4199 150.317 40.8799 150.507 41.2514 150.969C41.6652 151.424 41.9387 152.095 42.0721 152.981C42.3262 154.669 42.1222 156.037 41.4603 157.086C39.8561 159.614 38.1283 161.751 36.2769 163.497C34.4677 165.236 32.2551 166.303 29.6392 166.696C27.4875 167.02 25.771 166.653 24.4899 165.595C23.2024 164.494 22.3808 162.762 22.0251 160.4C21.8473 159.218 21.825 157.064 21.9584 153.938C22.1068 151.197 22.1048 149.32 21.9523 148.308C21.8507 147.633 21.5679 147.33 21.1037 147.4C20.5553 147.483 19.8827 148.317 19.086 149.904C18.283 151.449 17.5499 153.458 16.8866 155.931C16.2234 158.404 15.769 160.975 15.5235 163.644C15.23 167.14 13.5011 169.126 10.3367 169.602C9.07098 169.793 8.16046 169.477 7.60517 168.654C7.08573 167.783 6.64817 166.166 6.2925 163.804C6.08926 162.453 5.9484 161.374 5.86992 160.566L5.17106 155.494C4.19298 148.996 3.82757 142.126 4.07485 134.883C4.36432 127.634 5.43705 121.432 7.29303 116.277C9.18486 111.074 11.945 108.199 15.5734 107.652C17.5142 107.36 19.2023 107.969 20.6378 109.479C22.109 110.94 23.0447 113 23.4448 115.658C24.0863 119.919 23.5085 124.537 21.7115 129.51C19.9082 134.442 16.6612 140.389 11.9707 147.351C12.1744 149.564 12.4509 151.831 12.8002 154.151C13.6527 150.355 14.7544 147.212 16.1055 144.722C17.4923 142.183 18.9355 140.305 20.4348 139.087C21.9764 137.863 23.4434 137.146 24.8357 136.936C27.5781 136.523 29.1557 137.688 29.5686 140.43C29.8163 142.076 29.7999 145.12 29.5195 149.563C29.2705 153.355 29.2348 155.841 29.4127 157.022C29.6667 158.71 30.4055 159.462 31.6291 159.278C32.4729 159.151 33.3882 158.495 34.3749 157.311C35.3975 156.078 36.7045 154.156 38.296 151.543C38.7134 150.876 39.2385 150.495 39.8714 150.4ZM15.1876 114.118C14.4281 114.232 13.7494 115.456 13.1515 117.79C12.5472 120.081 12.0815 123.15 11.7544 126.996C11.4631 130.794 11.3703 134.907 11.476 139.335C13.6282 135.862 15.2751 132.183 16.4165 128.301C17.6001 124.412 17.9697 120.991 17.5251 118.038C17.3219 116.687 17.0186 115.676 16.6153 115.003C16.212 114.33 15.7361 114.035 15.1876 114.118Z" fill="url(#paint5_linear_19_4)"/>
<path d="M110.624 55.5V11.0625H104.093V0.5H128.156V11.0625H121.624V55.5H110.624Z" fill="url(#paint6_linear_19_4)"/>
<path d="M92.1857 55.5V0.5H102.811V55.5H92.1857Z" fill="url(#paint7_linear_19_4)"/>
<path d="M76.3719 56C71.7886 56 68.4136 54.7188 66.2469 52.1562C64.0802 49.5729 62.9969 45.7812 62.9969 40.7812V0.5H73.6844V40.3438C73.6844 41.2604 73.7365 42.1458 73.8407 43C73.9448 43.8333 74.1844 44.5208 74.5594 45.0625C74.9344 45.6042 75.5386 45.875 76.3719 45.875C77.2261 45.875 77.8407 45.6146 78.2157 45.0938C78.5907 44.5521 78.8198 43.8542 78.9032 43C79.0073 42.1458 79.0594 41.2604 79.0594 40.3438V0.5H89.7469V40.7812C89.7469 45.7812 88.6636 49.5729 86.4969 52.1562C84.3302 54.7188 80.9552 56 76.3719 56Z" fill="url(#paint8_linear_19_4)"/>
<path d="M57.6207 61.3438L48.8707 55.5938C47.8707 55.8646 46.8394 56 45.7769 56C41.4852 56 38.204 54.7292 35.9332 52.1875C33.6832 49.6458 32.5582 45.9375 32.5582 41.0625V14.4688C32.5582 9.73958 33.7144 6.14583 36.0269 3.6875C38.3602 1.22917 41.7248 0 46.1207 0C50.5165 0 53.8707 1.22917 56.1832 3.6875C58.5165 6.14583 59.6832 9.73958 59.6832 14.4688V41.0625C59.6832 45.6042 58.6623 49.1771 56.6207 51.7812L61.3394 54.7812L57.6207 61.3438ZM46.1207 45.875C46.9123 45.875 47.4748 45.5833 47.8082 45C48.1623 44.4167 48.3811 43.6979 48.4644 42.8438C48.5686 41.9896 48.6207 41.1667 48.6207 40.375V14.6562C48.6207 13.4896 48.454 12.4479 48.1207 11.5312C47.8082 10.5938 47.1207 10.125 46.0582 10.125C44.9748 10.125 44.2665 10.5833 43.9332 11.5C43.5998 12.3958 43.4332 13.4375 43.4332 14.625V40.5938C43.4332 41.3229 43.4748 42.1042 43.5582 42.9375C43.6623 43.75 43.9019 44.4479 44.2769 45.0312C44.6519 45.5938 45.2665 45.875 46.1207 45.875Z" fill="url(#paint9_linear_19_4)"/>
<path d="M110.624 117.5V73.0625H104.093V62.5H128.156V73.0625H121.624V117.5H110.624Z" fill="url(#paint10_linear_19_4)"/>
<path d="M92.1857 117.5V62.5H102.811V117.5H92.1857Z" fill="url(#paint11_linear_19_4)"/>
<path d="M76.3719 118C71.7886 118 68.4136 116.719 66.2469 114.156C64.0802 111.573 62.9969 107.781 62.9969 102.781V62.5H73.6844V102.344C73.6844 103.26 73.7365 104.146 73.8407 105C73.9448 105.833 74.1844 106.521 74.5594 107.062C74.9344 107.604 75.5386 107.875 76.3719 107.875C77.2261 107.875 77.8407 107.615 78.2157 107.094C78.5907 106.552 78.8198 105.854 78.9032 105C79.0073 104.146 79.0594 103.26 79.0594 102.344V62.5H89.7469V102.781C89.7469 107.781 88.6636 111.573 86.4969 114.156C84.3302 116.719 80.9552 118 76.3719 118Z" fill="url(#paint12_linear_19_4)"/>
<path d="M57.6207 123.344L48.8707 117.594C47.8707 117.865 46.8394 118 45.7769 118C41.4852 118 38.204 116.729 35.9332 114.188C33.6832 111.646 32.5582 107.938 32.5582 103.062V76.4688C32.5582 71.7396 33.7144 68.1458 36.0269 65.6875C38.3602 63.2292 41.7248 62 46.1207 62C50.5165 62 53.8707 63.2292 56.1832 65.6875C58.5165 68.1458 59.6832 71.7396 59.6832 76.4688V103.062C59.6832 107.604 58.6623 111.177 56.6207 113.781L61.3394 116.781L57.6207 123.344ZM46.1207 107.875C46.9123 107.875 47.4748 107.583 47.8082 107C48.1623 106.417 48.3811 105.698 48.4644 104.844C48.5686 103.99 48.6207 103.167 48.6207 102.375V76.6562C48.6207 75.4896 48.454 74.4479 48.1207 73.5312C47.8082 72.5938 47.1207 72.125 46.0582 72.125C44.9748 72.125 44.2665 72.5833 43.9332 73.5C43.5998 74.3958 43.4332 75.4375 43.4332 76.625V102.594C43.4332 103.323 43.4748 104.104 43.5582 104.938C43.6623 105.75 43.9019 106.448 44.2769 107.031C44.6519 107.594 45.2665 107.875 46.1207 107.875Z" fill="url(#paint13_linear_19_4)"/>
</g>
<defs>
<filter id="filter0_d_19_4" x="0" y="0" width="172.608" height="188.866" filterUnits="userSpaceOnUse" color-interpolation-filters="sRGB">
<feFlood flood-opacity="0" result="BackgroundImageFix"/>
<feColorMatrix in="SourceAlpha" type="matrix" values="0 0 0 0 0 0 0 0 0 0 0 0 0 0 0 0 0 0 127 0" result="hardAlpha"/>
<feOffset dy="8"/>
<feGaussianBlur stdDeviation="2"/>
<feComposite in2="hardAlpha" operator="out"/>
<feColorMatrix type="matrix" values="0 0 0 0 0 0 0 0 0 0 0 0 0 0 0 0 0 0 0.25 0"/>
<feBlend mode="normal" in2="BackgroundImageFix" result="effect1_dropShadow_19_4"/>
<feBlend mode="normal" in="SourceGraphic" in2="effect1_dropShadow_19_4" result="shape"/>
</filter>
<linearGradient id="paint0_linear_19_4" x1="86.3042" y1="0" x2="86.3042" y2="176.866" gradientUnits="userSpaceOnUse">
<stop stop-color="#FFB3BA"/>
<stop offset="0.5" stop-color="#FFDFBA"/>
<stop offset="1" stop-color="#FFFFBA"/>
</linearGradient>
<linearGradient id="paint1_linear_19_4" x1="86.3042" y1="0" x2="86.3042" y2="176.866" gradientUnits="userSpaceOnUse">
<stop stop-color="#FFB3BA"/>
<stop offset="0.5" stop-color="#FFDFBA"/>
<stop offset="1" stop-color="#FFFFBA"/>
</linearGradient>
<linearGradient id="paint2_linear_19_4" x1="86.3042" y1="0" x2="86.3042" y2="176.866" gradientUnits="userSpaceOnUse">
<stop stop-color="#FFB3BA"/>
<stop offset="0.5" stop-color="#FFDFBA"/>
<stop offset="1" stop-color="#FFFFBA"/>
</linearGradient>
<linearGradient id="paint3_linear_19_4" x1="86.3042" y1="0" x2="86.3042" y2="176.866" gradientUnits="userSpaceOnUse">
<stop stop-color="#FFB3BA"/>
<stop offset="0.5" stop-color="#FFDFBA"/>
<stop offset="1" stop-color="#FFFFBA"/>
</linearGradient>
<linearGradient id="paint4_linear_19_4" x1="86.3042" y1="0" x2="86.3042" y2="176.866" gradientUnits="userSpaceOnUse">
<stop stop-color="#FFB3BA"/>
<stop offset="0.5" stop-color="#FFDFBA"/>
<stop offset="1" stop-color="#FFFFBA"/>
</linearGradient>
<linearGradient id="paint5_linear_19_4" x1="86.3042" y1="0" x2="86.3042" y2="176.866" gradientUnits="userSpaceOnUse">
<stop stop-color="#FFB3BA"/>
<stop offset="0.5" stop-color="#FFDFBA"/>
<stop offset="1" stop-color="#FFFFBA"/>
</linearGradient>
<linearGradient id="paint6_linear_19_4" x1="80.3569" y1="0" x2="80.3569" y2="123.344" gradientUnits="userSpaceOnUse">
<stop stop-color="white"/>
<stop offset="1" stop-color="#FFDFBA"/>
</linearGradient>
<linearGradient id="paint7_linear_19_4" x1="80.3569" y1="0" x2="80.3569" y2="123.344" gradientUnits="userSpaceOnUse">
<stop stop-color="white"/>
<stop offset="1" stop-color="#FFDFBA"/>
</linearGradient>
<linearGradient id="paint8_linear_19_4" x1="80.3569" y1="0" x2="80.3569" y2="123.344" gradientUnits="userSpaceOnUse">
<stop stop-color="white"/>
<stop offset="1" stop-color="#FFDFBA"/>
</linearGradient>
<linearGradient id="paint9_linear_19_4" x1="80.3569" y1="0" x2="80.3569" y2="123.344" gradientUnits="userSpaceOnUse">
<stop stop-color="white"/>
<stop offset="1" stop-color="#FFDFBA"/>
</linearGradient>
<linearGradient id="paint10_linear_19_4" x1="80.3569" y1="0" x2="80.3569" y2="123.344" gradientUnits="userSpaceOnUse">
<stop stop-color="white"/>
<stop offset="1" stop-color="#FFDFBA"/>
</linearGradient>
<linearGradient id="paint11_linear_19_4" x1="80.3569" y1="0" x2="80.3569" y2="123.344" gradientUnits="userSpaceOnUse">
<stop stop-color="white"/>
<stop offset="1" stop-color="#FFDFBA"/>
</linearGradient>
<linearGradient id="paint12_linear_19_4" x1="80.3569" y1="0" x2="80.3569" y2="123.344" gradientUnits="userSpaceOnUse">
<stop stop-color="white"/>
<stop offset="1" stop-color="#FFDFBA"/>
</linearGradient>
<linearGradient id="paint13_linear_19_4" x1="80.3569" y1="0" x2="80.3569" y2="123.344" gradientUnits="userSpaceOnUse">
<stop stop-color="white"/>
<stop offset="1" stop-color="#FFDFBA"/>
</linearGradient>
</defs>
</svg>